<svg width="2767" height="1051" viewBox="0 0 2767 1051" fill="none" xmlns="http://www.w3.org/2000/svg">
<path d="M1725.33 700.38C1731.94 699.904 1740.3 700.189 1750.6 701.002C1791.85 704.257 1864.52 716.001 1983.03 722.001H1983.03L1983.88 722.059C2001.68 723.373 2013.35 730.875 2025.26 741.169C2037.36 751.632 2049.66 764.919 2068.96 777.708C2107.23 803.052 2173 826.381 2318.53 820.642L2321.98 820.5C2439.38 811.005 2532.31 778.034 2641.25 716.564L2641.28 716.549L2641.31 716.536C2661.9 708.253 2680.41 707.225 2696.75 713.723C2713.07 720.214 2727.14 734.182 2738.92 755.726C2757.46 780.783 2765.12 803.744 2766.12 824.101C2767.13 844.446 2761.48 862.15 2753.46 876.707C2749.79 886.049 2742.67 894.978 2732.9 903.64C2723.13 912.311 2710.67 920.736 2696.31 929.058C2667.6 945.699 2631.2 961.96 2593.2 978.956L2593.19 978.964L2593.17 978.971C2486.69 1017.47 2426.87 1030.85 2320.06 1044L2320.05 1044C2192.98 1058.01 2120.97 1049.35 1990.35 1008.48L1990.34 1008.47L1990.32 1008.47C1914.53 979.952 1855.47 945.796 1809.46 901.234C1763.46 856.67 1730.55 801.721 1707.03 731.659L1707.02 731.646L1707.02 731.634C1705.08 724.617 1704.2 718.965 1704.67 714.491C1705.14 709.987 1706.97 706.663 1710.4 704.365C1713.8 702.09 1718.73 700.855 1725.33 700.38ZM1750.52 701.998C1740.23 701.186 1731.94 700.908 1725.4 701.378C1718.86 701.849 1714.14 703.067 1710.96 705.197C1707.81 707.306 1706.11 710.341 1705.66 714.595C1705.22 718.876 1706.05 724.377 1707.98 731.354C1731.46 801.286 1764.29 856.083 1810.16 900.516C1856.03 944.949 1914.96 979.041 1990.65 1007.52C2121.16 1048.36 2193.02 1056.99 2319.95 1043C2426.68 1029.86 2486.42 1016.5 2592.81 978.036C2630.81 961.035 2667.16 944.799 2695.81 928.192C2710.14 919.889 2722.53 911.502 2732.24 902.892C2741.95 894.28 2748.95 885.466 2752.53 876.317L2752.55 876.287L2752.56 876.259C2760.53 861.823 2766.12 844.288 2765.13 824.149C2764.13 804.013 2756.55 781.231 2738.1 756.298L2738.08 756.27L2738.06 756.24C2726.35 734.803 2712.42 721.033 2696.38 714.652C2680.35 708.278 2662.12 709.246 2641.72 717.451C2532.68 778.968 2439.62 811.992 2322.04 821.498L2322.03 821.499L2322.02 821.5C2173.97 827.752 2107.22 804.248 2068.41 778.542C2049.03 765.707 2036.61 752.306 2024.6 741.925C2012.59 731.538 2000.94 724.114 1982.97 722.999V722.998C1864.48 716.998 1791.64 705.243 1750.52 701.998ZM1388.02 0C1421.07 1.00156 1453.62 7.19728 1482.82 23.4033C1511.57 39.3602 1537.04 65.0039 1556.53 104.875L1557.45 106.784L1557.46 106.803L1557.47 106.822C1582.5 172.663 1585.88 239.377 1577.12 296.201C1568.39 352.846 1547.58 399.71 1524.08 426.098C1526.96 433.235 1533.63 440.132 1543.16 446.649C1552.8 453.245 1565.33 459.417 1579.68 465.034C1607.49 475.917 1642.11 484.696 1675.82 490.458L1679.08 491.007L1679.1 491.01L1679.12 491.015C1680.06 491.248 1680.71 491.206 1681.15 491.057C1681.6 490.909 1681.89 490.644 1682.08 490.348C1682.29 490.045 1682.39 489.706 1682.45 489.433C1682.47 489.298 1682.49 489.184 1682.49 489.106C1682.5 489.068 1682.5 489.038 1682.5 489.02V488.99L1682.5 488.981L1683 489C1682.5 488.981 1682.5 488.979 1682.5 488.977C1682.5 488.974 1682.5 488.97 1682.5 488.965C1682.5 488.954 1682.5 488.939 1682.5 488.918C1682.5 488.877 1682.51 488.815 1682.51 488.733C1682.52 488.57 1682.53 488.326 1682.55 488.006C1682.58 487.365 1682.64 486.413 1682.73 485.171C1682.91 482.687 1683.22 479.038 1683.74 474.377C1684.78 465.054 1686.66 451.677 1690.03 435.453C1696.78 403.006 1709.5 359.162 1733.37 313.58C1781.12 222.4 1873.49 124.284 2051.92 96.5059L2051.94 96.5039C2218.29 76.2416 2328.68 112.757 2399.31 168.921C2469.93 225.077 2500.73 300.829 2508 358.938L2508 358.94C2514.26 411.023 2508.88 482.548 2457.83 546.562C2406.78 610.574 2310.14 666.987 2134.06 688.996L2134.04 688.999L2134.01 689C1773.5 695.99 1556.51 652.625 1454.22 603.16C1384.65 738.215 1340.96 816.012 1244.92 962.274L1244.9 962.3L1244.88 962.323C1188.25 1028.97 1119.06 1043.28 1059.01 1028.61C998.99 1013.95 948.103 970.349 928.037 921.188L928.032 921.177L928.027 921.164C906.777 859.914 874.828 767.764 848.04 690.376C834.646 651.682 822.543 616.679 813.713 591.074C804.891 565.491 799.325 549.257 799.018 548.132C798.723 547.051 798.421 546.487 798.178 546.23C798.064 546.111 797.985 546.082 797.945 546.074C797.908 546.067 797.856 546.068 797.773 546.109C797.581 546.205 797.338 546.461 797.085 546.871C796.842 547.264 796.628 547.735 796.47 548.171L796.466 548.183L796.461 548.194C739.455 683.209 707.945 757.229 591.932 956.252L591.911 956.287L591.886 956.318C531.271 1029.71 461.95 1044.79 403.312 1029.67C344.721 1014.57 296.841 969.333 279.032 922.177L279.029 922.169L0.0292969 145.669L0 145.587V145.5C0.000122098 17.4735 160.434 -14.4354 214.31 81.1289L214.938 82.2598L214.958 82.2949L214.972 82.334C310.475 353.902 406.067 626.68 463.107 778.863C571.792 601.242 653.063 426.629 698.979 257.01L665.523 151.15L665.513 151.118L665.507 151.084C655.462 92.3203 689.502 47.6036 733.829 31.5303C777.822 15.5783 831.955 27.833 863.202 82.458L863.937 83.7559L863.957 83.7939L863.972 83.834L1115.13 796.878C1194.51 675.379 1233.52 605.316 1290.42 477.074C1276.24 459.34 1236.46 407.96 1214.39 344.163C1187.37 266.073 1186.99 199.465 1205.52 137.855L1205.53 137.842C1231.08 61.1893 1290.74 5.1198e-05 1388 0H1388.02ZM1387.99 1C1291.26 1.00578 1231.92 61.8144 1206.47 138.158C1188.01 199.545 1188.38 265.933 1215.33 343.837C1237.44 407.752 1277.4 459.197 1291.39 476.688L1291.58 476.925L1291.46 477.202C1234.34 605.973 1195.25 676.125 1115.42 798.273L1114.87 799.121L1114.53 798.166L863.043 84.208C832.167 28.9673 778.071 16.5509 734.17 32.4697C690.254 48.3939 656.55 92.6651 666.488 150.887L699.977 256.85L700.021 256.989L699.982 257.131C653.967 427.189 572.444 602.233 463.427 780.261L462.892 781.135L462.532 780.176C405.533 628.177 309.74 354.826 214.042 82.7051C161.277 -13.2863 1.07292 18.0302 1 145.413L279.968 921.823L280.388 922.921C298.403 969.369 345.734 1013.8 403.562 1028.7C461.792 1043.71 530.711 1028.8 591.09 955.71C707.058 756.762 738.549 682.783 795.539 547.806C795.713 547.331 795.951 546.803 796.234 546.345C796.512 545.895 796.877 545.44 797.326 545.215C797.564 545.096 797.841 545.035 798.136 545.092C798.428 545.149 798.684 545.311 798.902 545.541C799.323 545.984 799.677 546.749 799.982 547.868C800.277 548.947 805.822 565.126 814.658 590.748C823.488 616.352 835.591 651.355 848.984 690.049C875.77 767.431 907.719 859.574 928.969 920.824C948.907 969.658 999.517 1013.05 1059.24 1027.64C1118.93 1042.22 1187.73 1028.03 1244.1 961.697C1340.21 815.33 1383.88 737.556 1453.56 602.271L1453.78 601.837L1454.22 602.05C1556.11 651.496 1773 694.997 2133.96 688C2309.87 666.007 2406.22 609.673 2457.05 545.938C2507.87 482.203 2513.24 410.979 2507 359.062C2499.77 301.171 2469.07 225.673 2398.69 169.704C2328.32 113.745 2218.22 77.2598 2052.08 97.4932L2052.08 97.4941C1874.01 125.216 1781.88 223.1 1734.26 314.044C1710.44 359.524 1697.75 403.275 1691.01 435.656C1687.65 451.846 1685.77 465.192 1684.73 474.488C1684.21 479.136 1683.9 482.771 1683.73 485.243C1683.64 486.479 1683.58 487.424 1683.55 488.06C1683.53 488.377 1683.52 488.618 1683.51 488.778C1683.51 488.858 1683.5 488.919 1683.5 488.959C1683.5 488.979 1683.5 488.994 1683.5 489.004V489.02C1683.5 489.029 1683.5 489.043 1683.5 489.059C1683.5 489.091 1683.49 489.135 1683.49 489.189C1683.48 489.299 1683.46 489.451 1683.43 489.629C1683.36 489.981 1683.21 490.455 1682.92 490.902C1682.61 491.356 1682.15 491.778 1681.47 492.006C1680.8 492.23 1679.95 492.25 1678.9 491.989C1644.13 486.235 1608.1 477.23 1579.32 465.966C1564.92 460.333 1552.32 454.13 1542.59 447.476C1532.87 440.829 1525.96 433.695 1523.03 426.182L1522.92 425.896L1523.13 425.666C1546.54 399.51 1567.39 352.736 1576.13 296.049C1584.87 239.381 1581.5 172.854 1556.54 107.203C1537.02 66.417 1511.35 40.3771 1482.34 24.2783C1453.32 8.1743 1420.94 1.99862 1387.99 1ZM2023.65 354.646C2061.8 316.744 2119.37 307.86 2167.8 318.699C2216.19 329.53 2255.74 360.137 2257.5 401.479L2257.5 401.508L2257.5 401.536C2254.23 446.754 2227.84 479.646 2182.83 499.894C2137.85 520.129 2074.25 527.752 1996.47 522.499L1996.42 522.496L1996.37 522.483C1981.2 518.437 1972.38 508.771 1968.47 495.84C1964.56 482.944 1965.54 466.827 1969.83 449.815C1978.41 415.79 2000.33 377.96 2023.65 354.646L2023.65 354.646ZM2167.58 319.676C2119.38 308.89 2062.2 317.756 2024.35 355.354C2001.17 378.541 1979.34 416.211 1970.8 450.06C1966.53 466.986 1965.59 482.9 1969.42 495.551C1973.24 508.153 1981.79 517.544 1996.58 521.504C2074.27 526.745 2137.66 519.117 2182.42 498.981C2227.15 478.857 2253.26 446.257 2256.5 401.486C2254.74 360.846 2215.79 330.467 2167.58 319.676ZM1463.36 203.447C1465.42 202.776 1467.21 202.541 1468.62 203.013C1477.9 204.579 1484.04 213.197 1486.78 225.62C1489.52 238.083 1488.88 254.54 1484.49 272.121L1484.48 272.152L1484.47 272.183C1471.67 304.797 1448.83 328.033 1421.44 338.965C1394.04 349.898 1362.14 348.506 1331.26 331.94L1331.23 331.924L1331.21 331.903C1317.09 321.577 1306.9 313.1 1299.18 303.593C1291.46 294.075 1286.24 283.547 1282.02 269.141L1282.01 269.111L1282.01 269.081C1280.51 259.945 1279.71 252.661 1279.62 246.904C1279.52 241.155 1280.12 236.887 1281.43 233.812C1282.76 230.71 1284.81 228.828 1287.56 227.878C1290.28 226.938 1293.63 226.923 1297.57 227.441C1301.5 227.961 1306.08 229.027 1311.24 230.297C1316.42 231.569 1322.2 233.048 1328.59 234.409C1341.36 237.13 1356.53 239.373 1373.98 238.501C1397.61 237.319 1418.65 227.614 1435.07 218.608C1439.18 216.358 1442.99 214.152 1446.48 212.135C1449.97 210.119 1453.14 208.289 1455.96 206.795C1458.78 205.302 1461.26 204.132 1463.36 203.447ZM1468.33 203.972C1467.25 203.591 1465.71 203.736 1463.67 204.398C1461.65 205.056 1459.23 206.192 1456.43 207.678C1453.63 209.162 1450.47 210.983 1446.98 213.001C1443.49 215.017 1439.67 217.228 1435.55 219.485C1419.1 228.511 1397.89 238.306 1374.03 239.499C1356.47 240.377 1341.2 238.12 1328.38 235.388C1321.97 234.022 1316.17 232.537 1311 231.268C1305.83 229.996 1301.31 228.945 1297.43 228.434C1293.55 227.921 1290.38 227.96 1287.88 228.823C1285.42 229.676 1283.57 231.345 1282.35 234.204C1281.12 237.09 1280.52 241.193 1280.62 246.887C1280.71 252.566 1281.49 259.785 1282.99 268.882C1287.18 283.179 1292.34 293.574 1299.96 302.962C1307.58 312.358 1317.68 320.768 1331.76 331.074C1362.38 347.495 1393.97 348.849 1421.06 338.035C1448.16 327.221 1470.81 304.22 1483.52 271.853C1487.89 254.385 1488.5 238.102 1485.8 225.836C1483.1 213.538 1477.11 205.442 1468.42 203.993L1468.38 203.986L1468.33 203.972Z" fill="black"/>
</svg>
