<svg version="1.0" xmlns="http://www.w3.org/2000/svg"
 width="2774" height="1050" viewBox="0 0 2774.000000 1050.000000"
 preserveAspectRatio="xMidYMid meet">
<g transform="translate(0.000000,1050.000000) scale(0.100000,-0.100000)"
fill="currentColor" stroke="none">
<path d="M13686 10491 c-4 -5 -41 -12 -84 -16 -146 -12 -328 -56 -477 -115
-149 -58 -351 -184 -485 -302 -203 -178 -407 -480 -519 -768 -18 -47 -37 -94
-41 -105 -5 -11 -13 -36 -19 -55 -6 -19 -17 -55 -25 -80 -13 -41 -31 -113 -56
-225 -11 -47 -25 -138 -40 -250 -25 -196 -9 -606 35 -860 47 -274 147 -605
262 -865 31 -69 203 -416 229 -460 15 -25 35 -59 45 -77 69 -122 217 -339 332
-486 l68 -88 -34 -107 c-69 -213 -143 -381 -329 -752 -129 -258 -270 -520
-417 -775 -35 -60 -73 -126 -84 -145 -17 -31 -358 -598 -412 -686 -11 -18 -40
-65 -65 -106 -25 -40 -65 -105 -90 -143 -25 -39 -49 -79 -55 -88 -5 -10 -46
-72 -89 -140 -176 -272 -183 -281 -190 -255 -12 43 -128 396 -136 413 -5 11
-29 81 -54 155 -74 224 -157 464 -166 485 -9 20 -80 227 -126 365 -14 41 -29
84 -34 95 -8 19 -47 131 -110 315 -16 47 -47 137 -70 200 -22 63 -52 149 -66
190 -14 41 -29 84 -34 95 -8 19 -61 168 -100 285 -10 30 -37 107 -60 170 -23
63 -50 140 -60 170 -10 30 -37 107 -60 170 -23 63 -50 140 -60 170 -10 30 -37
107 -60 170 -23 63 -50 140 -60 170 -10 30 -37 107 -60 170 -23 63 -48 135
-56 160 -8 25 -19 54 -24 65 -11 24 -52 144 -86 245 -14 41 -29 84 -34 95 -5
11 -16 40 -24 65 -8 25 -33 97 -56 160 -23 63 -48 135 -56 160 -8 25 -19 54
-24 65 -5 11 -18 49 -30 85 -12 36 -25 74 -30 85 -10 22 -52 141 -80 225 -10
30 -33 93 -50 140 -17 47 -42 119 -56 160 -14 41 -29 84 -34 95 -9 21 -51 140
-76 215 -8 25 -19 54 -24 65 -9 22 -51 138 -80 225 -10 30 -33 93 -50 140 -17
47 -40 110 -50 140 -10 30 -37 107 -60 170 -23 63 -48 135 -56 160 -8 25 -19
54 -24 65 -5 11 -16 40 -24 65 -36 113 -108 293 -128 322 -10 14 -18 29 -18
33 0 4 -26 44 -57 88 -194 269 -508 427 -847 427 -144 0 -286 -25 -391 -69
-177 -74 -348 -206 -462 -356 -76 -100 -148 -265 -184 -420 -19 -80 -19 -330
0 -410 15 -65 80 -263 191 -585 162 -466 157 -449 131 -530 -5 -14 -14 -45
-21 -70 -19 -68 -32 -112 -41 -140 -4 -14 -22 -72 -39 -130 -37 -121 -177
-545 -222 -670 -97 -272 -315 -835 -378 -975 -9 -22 -37 -85 -60 -140 -23 -55
-50 -118 -60 -140 -10 -22 -32 -74 -50 -115 -172 -396 -522 -1113 -762 -1560
-155 -288 -404 -728 -536 -945 -47 -77 -90 -149 -96 -160 -37 -64 -79 -125
-86 -125 -9 0 -32 53 -60 140 -10 30 -37 107 -60 170 -23 63 -50 140 -60 170
-10 30 -37 107 -60 170 -23 63 -50 140 -60 170 -10 30 -37 107 -60 170 -23 63
-50 140 -60 170 -10 30 -37 107 -60 170 -23 63 -50 140 -60 170 -10 30 -37
107 -60 170 -23 63 -50 140 -60 170 -10 30 -37 107 -60 170 -23 63 -50 140
-60 170 -10 30 -37 107 -60 170 -23 63 -50 140 -60 170 -10 30 -37 107 -60
170 -23 63 -50 140 -60 170 -10 30 -37 107 -60 170 -23 63 -50 140 -60 170
-10 30 -37 107 -60 170 -23 63 -50 140 -60 170 -10 30 -37 107 -60 170 -23 63
-50 140 -60 170 -10 30 -37 107 -60 170 -23 63 -50 140 -60 170 -10 30 -37
107 -60 170 -23 63 -50 140 -60 170 -10 30 -37 107 -60 170 -23 63 -50 140
-60 170 -10 30 -37 107 -60 170 -23 63 -50 140 -60 170 -30 88 -71 203 -80
225 -11 25 -54 147 -86 245 -14 41 -29 84 -34 95 -10 24 -52 142 -86 245 -14
41 -29 84 -34 95 -10 24 -52 142 -86 245 -14 41 -29 84 -34 95 -11 25 -53 146
-86 245 -13 41 -29 83 -34 92 -6 10 -10 23 -10 28 0 6 -14 41 -32 78 -99 209
-277 390 -485 495 -51 26 -148 61 -248 88 -66 18 -348 19 -430 1 -33 -8 -79
-18 -102 -23 -89 -19 -139 -31 -168 -41 -162 -54 -336 -165 -442 -283 -138
-153 -245 -372 -268 -552 -4 -29 -11 -53 -16 -53 -5 0 -9 -49 -9 -110 0 -60 4
-110 9 -110 5 0 12 -24 16 -52 9 -66 27 -136 54 -213 12 -33 29 -80 37 -105 8
-25 19 -54 24 -65 4 -11 17 -46 29 -77 30 -84 58 -160 80 -220 10 -29 28 -79
40 -110 12 -32 30 -84 42 -115 12 -32 25 -67 29 -78 4 -11 13 -36 20 -55 7
-19 16 -44 20 -55 4 -11 13 -36 20 -55 7 -19 16 -44 20 -55 4 -11 13 -36 20
-55 7 -19 16 -44 20 -55 4 -11 13 -36 20 -55 7 -19 16 -44 20 -55 4 -11 13
-36 20 -55 7 -19 16 -44 20 -55 4 -11 13 -36 20 -55 7 -19 16 -44 20 -55 4
-11 13 -36 20 -55 7 -19 16 -44 20 -55 4 -11 13 -36 20 -55 7 -19 16 -44 20
-55 4 -11 13 -36 20 -55 7 -19 16 -44 20 -55 4 -11 13 -36 20 -55 7 -19 16
-44 20 -55 4 -11 13 -36 20 -55 7 -19 16 -44 20 -55 4 -11 13 -36 20 -55 7
-19 16 -44 20 -55 4 -11 13 -36 20 -55 7 -19 16 -44 20 -55 4 -11 13 -36 20
-55 7 -19 16 -44 20 -55 4 -11 13 -36 20 -55 7 -19 16 -44 21 -55 4 -11 15
-40 23 -65 8 -25 29 -83 46 -130 18 -47 35 -96 40 -110 5 -14 23 -63 40 -110
17 -47 35 -96 40 -110 5 -14 22 -63 40 -110 48 -131 70 -191 86 -240 8 -25 19
-54 23 -65 5 -11 14 -36 21 -55 7 -19 16 -44 20 -55 18 -44 43 -112 56 -155 8
-25 19 -54 23 -65 5 -11 14 -36 21 -55 7 -19 16 -44 20 -55 4 -11 13 -36 20
-55 7 -19 16 -44 21 -55 4 -11 15 -40 23 -65 8 -25 29 -83 46 -130 18 -47 35
-96 40 -110 5 -14 22 -63 40 -110 17 -47 38 -105 46 -130 8 -25 19 -54 23 -65
5 -11 14 -36 21 -55 7 -19 16 -44 20 -55 4 -11 13 -36 20 -55 7 -19 16 -44 20
-55 4 -11 13 -36 20 -55 7 -19 16 -44 21 -55 4 -11 15 -40 23 -65 8 -25 29
-83 46 -130 53 -145 71 -193 86 -240 8 -25 19 -54 24 -65 14 -34 41 -108 56
-155 8 -25 19 -54 24 -65 5 -11 16 -40 24 -65 8 -25 29 -83 46 -130 53 -145
71 -193 86 -240 8 -25 19 -54 24 -65 14 -34 41 -108 56 -155 8 -25 19 -54 24
-65 5 -11 16 -40 24 -65 8 -25 29 -83 46 -130 53 -145 71 -193 86 -240 8 -25
19 -54 24 -65 14 -34 41 -108 56 -155 8 -25 19 -54 24 -65 5 -11 16 -40 24
-65 8 -25 29 -83 46 -130 18 -47 35 -96 40 -110 48 -153 135 -347 211 -470
186 -303 514 -578 834 -699 33 -13 69 -27 80 -32 11 -4 52 -17 90 -27 67 -19
104 -27 240 -54 82 -16 422 -16 510 0 144 26 298 68 380 102 125 52 166 71
234 112 34 21 65 38 68 38 3 0 47 30 97 67 151 112 306 270 417 428 33 47 245
395 301 495 14 25 49 86 78 135 57 98 226 401 282 505 191 355 254 475 441
850 210 420 301 609 485 1010 157 342 429 972 473 1093 15 42 34 48 42 14 3
-12 33 -101 67 -197 34 -96 79 -227 100 -290 22 -63 67 -194 100 -290 34 -96
79 -227 100 -290 22 -63 67 -194 100 -290 34 -96 79 -227 100 -290 22 -63 67
-194 100 -290 34 -96 79 -227 100 -290 22 -63 67 -194 100 -290 34 -96 79
-227 100 -290 22 -63 67 -194 100 -290 34 -96 79 -227 100 -290 46 -138 88
-257 101 -287 5 -13 13 -33 18 -45 57 -144 161 -317 272 -453 67 -82 231 -242
309 -302 369 -279 859 -420 1298 -373 177 20 386 68 507 119 66 28 244 118
300 152 161 97 357 272 476 424 75 96 397 580 552 830 28 44 72 116 100 160
75 121 243 402 342 570 48 83 102 175 120 205 18 30 45 78 60 105 15 28 55
100 90 160 34 61 77 137 95 170 18 33 65 119 105 190 178 323 331 611 506 960
67 132 125 244 129 249 5 4 64 -19 132 -52 244 -120 586 -239 931 -323 20 -5
54 -13 75 -18 36 -10 90 -22 175 -40 23 -5 62 -14 87 -20 40 -9 148 -31 308
-61 83 -16 152 -28 217 -39 33 -5 87 -15 120 -20 33 -6 94 -15 135 -21 41 -6
100 -15 130 -20 30 -5 89 -14 130 -19 41 -6 109 -15 150 -20 71 -10 115 -15
320 -40 544 -66 1349 -132 1970 -161 118 -5 328 -15 465 -22 316 -16 1062 -16
1255 0 402 34 631 64 975 128 82 15 361 80 405 94 14 4 43 13 65 19 174 48
387 121 515 178 108 47 394 187 485 237 801 440 1300 1024 1459 1711 47 202
59 309 59 535 0 295 -30 500 -123 835 -17 61 -59 184 -91 263 -5 12 -13 33
-19 47 -5 14 -14 35 -19 48 -17 43 -161 332 -187 376 -134 228 -379 505 -614
692 -344 275 -783 494 -1260 629 -25 7 -56 16 -70 20 -14 5 -47 13 -75 20 -27
6 -66 15 -85 20 -190 47 -488 95 -745 120 -387 37 -733 30 -1190 -25 -66 -8
-236 -36 -340 -56 -264 -52 -620 -154 -832 -240 -13 -5 -33 -13 -45 -18 -169
-67 -421 -191 -583 -286 -118 -69 -359 -236 -473 -327 -293 -236 -520 -482
-715 -773 -26 -38 -76 -109 -111 -158 -85 -115 -183 -280 -256 -433 -33 -68
-60 -126 -60 -129 0 -2 -13 -34 -30 -70 -16 -36 -30 -68 -30 -71 0 -4 -16 -50
-36 -103 -20 -53 -45 -123 -54 -156 -85 -281 -121 -426 -160 -640 -24 -131
-29 -166 -40 -245 -6 -47 -16 -109 -21 -139 -5 -30 -9 -67 -9 -82 0 -15 -4
-31 -10 -34 -9 -5 -130 16 -257 45 -24 6 -62 14 -85 19 -615 137 -1094 342
-1211 520 -44 66 -43 80 6 136 98 112 231 338 298 507 49 124 109 327 138 473
7 33 16 78 21 100 21 99 38 237 60 463 13 134 13 639 0 739 -13 102 -28 190
-47 283 -9 41 -18 86 -20 100 -15 78 -74 269 -114 368 -5 12 -13 32 -18 45
-37 93 -130 267 -194 361 -227 339 -586 590 -972 680 -137 33 -151 35 -217 41
-38 4 -68 11 -68 16 0 12 -447 12 -454 0z m1050 -2031 c79 -39 123 -132 144
-310 39 -325 -163 -714 -481 -927 -180 -120 -350 -173 -559 -173 -271 0 -521
105 -730 306 -85 82 -189 219 -222 294 -79 177 -93 233 -93 367 0 109 1 112
31 150 37 46 86 73 135 73 19 0 83 -15 141 -34 106 -34 177 -53 298 -77 87
-18 384 -18 475 -1 85 17 204 49 227 62 10 6 23 10 29 10 33 0 307 147 389
209 37 28 67 43 115 59 44 15 54 14 101 -8z m6819 -1135 c66 -8 131 -17 145
-20 96 -23 122 -29 175 -47 33 -11 97 -37 141 -58 265 -123 469 -359 536 -621
18 -73 19 -90 8 -163 -44 -311 -168 -520 -422 -715 -37 -28 -70 -51 -73 -51
-4 0 -25 -13 -48 -28 -49 -33 -186 -99 -272 -131 -33 -13 -69 -27 -80 -32 -93
-39 -420 -115 -605 -139 -47 -6 -98 -13 -115 -16 -16 -2 -115 -11 -220 -19
-218 -17 -428 -19 -632 -5 -124 8 -149 12 -199 37 -166 80 -262 275 -224 451
6 26 15 70 21 97 65 318 173 600 314 820 109 169 315 372 465 459 123 71 281
134 395 158 72 15 321 35 455 36 63 1 169 -5 235 -13z"/>
<path d="M17195 3498 c-90 -24 -146 -94 -147 -186 0 -55 30 -171 72 -277 4
-11 13 -36 20 -55 7 -19 16 -45 21 -57 5 -13 14 -34 19 -48 6 -14 15 -36 20
-50 6 -14 14 -35 19 -47 19 -48 183 -375 209 -419 15 -25 40 -67 56 -95 157
-262 413 -573 665 -808 469 -436 1085 -797 1769 -1037 125 -44 158 -54 242
-79 41 -12 86 -26 100 -31 42 -15 356 -95 465 -119 105 -23 132 -29 190 -40
33 -6 78 -15 100 -20 22 -5 74 -14 115 -20 41 -6 100 -15 130 -20 139 -23 334
-46 500 -59 210 -18 508 -33 527 -27 10 3 119 10 243 16 280 12 462 27 750 59
134 16 389 50 455 61 33 6 87 14 120 20 116 18 319 55 460 84 83 17 101 21
250 56 218 51 261 62 285 70 14 4 63 18 110 30 47 12 96 26 110 30 14 5 59 19
100 31 88 26 437 141 501 164 24 10 80 30 124 47 44 16 90 34 103 39 12 5 32
13 45 18 41 16 114 46 252 106 90 39 160 72 360 171 190 94 256 128 365 191
19 11 51 29 70 40 239 137 338 213 439 338 108 134 186 310 220 491 14 76 14
256 1 326 -44 224 -66 270 -262 565 -167 251 -236 324 -361 385 -115 57 -177
71 -307 72 -165 1 -251 -25 -419 -127 -35 -21 -79 -47 -97 -58 -19 -10 -51
-29 -71 -41 -90 -51 -167 -91 -298 -156 -161 -80 -208 -102 -360 -167 -19 -8
-50 -21 -67 -29 -18 -8 -76 -31 -128 -51 -52 -20 -104 -40 -115 -45 -11 -4
-36 -13 -55 -20 -19 -7 -44 -16 -55 -21 -29 -12 -248 -83 -335 -109 -41 -12
-86 -26 -100 -30 -49 -15 -234 -65 -295 -79 -27 -7 -66 -16 -85 -21 -665 -172
-1786 -227 -2435 -119 -222 37 -404 81 -600 144 -80 26 -247 96 -338 141 -229
115 -366 213 -562 404 -77 75 -160 150 -185 167 -84 55 -193 88 -325 98 -44 3
-133 10 -197 15 -65 6 -172 15 -238 20 -66 6 -174 15 -240 20 -66 6 -173 14
-237 20 -65 5 -176 14 -248 20 -248 20 -357 29 -725 60 -211 18 -349 29 -493
39 -75 6 -147 13 -160 15 -12 2 -40 0 -62 -6z"/>
</g>
</svg>
