<svg width="2587" height="854" viewBox="0 0 2587 854" fill="none" xmlns="http://www.w3.org/2000/svg">
<path d="M6.79246 2.36545C6.13523 0.547615 4.1288 -0.393245 2.31096 0.263982C0.493125 0.921209 -0.447734 2.92764 0.209493 4.74548L3.50098 3.55547L6.79246 2.36545ZM270.501 742.055L273.895 741.202L273.852 741.031L273.792 740.865L270.501 742.055ZM444.501 742.055L447.609 743.666L447.649 743.588L447.685 743.509L444.501 742.055ZM677.501 27.5556L680.807 26.4058C680.179 24.5997 678.217 23.6321 676.402 24.2327C674.586 24.8333 673.589 26.7798 674.162 28.6042L677.501 27.5556ZM926.001 742.055L922.695 743.205L922.794 743.49L922.941 743.754L926.001 742.055ZM1102.5 742.055L1105.48 743.887L1105.49 743.88L1102.5 742.055ZM1375.5 295.055L1378.49 296.88L1378.5 296.864L1378.51 296.847L1375.5 295.055ZM1274 3.55547L1274.43 0.0823717L1273.77 -1.66893e-06L1273.13 0.165821L1274 3.55547ZM1228.5 295.055L1225.79 297.268L1225.9 297.405L1226.03 297.53L1228.5 295.055ZM1375.5 405.055L1377.03 401.908L1376.97 401.88L1376.92 401.854L1375.5 405.055ZM2186.5 466.555L2187.27 469.969L2187.89 469.83L2188.42 469.486L2186.5 466.555ZM1988.5 97.0555L1987.59 93.6766L1987.46 93.7112L1987.34 93.7553L1988.5 97.0555ZM1718 493.555L1717.2 496.963L1717.37 497.003L1717.54 497.025L1718 493.555ZM715.501 148.556L718.685 150.009L719.242 148.788L718.84 147.507L715.501 148.556ZM3.50098 3.55547L0.209493 4.74548L267.21 743.245L270.501 742.055L273.792 740.865L6.79246 2.36545L3.50098 3.55547ZM270.501 742.055L267.107 742.909C277.496 784.215 303.727 820.305 337.622 827.786C372.078 835.39 411.671 813.028 447.609 743.666L444.501 742.055L441.393 740.445C405.831 809.083 368.674 827.471 339.13 820.95C309.025 814.306 284.006 781.397 273.895 741.202L270.501 742.055ZM677.501 27.5556L674.195 28.7053L922.695 743.205L926.001 742.055L929.307 740.906L680.807 26.4058L677.501 27.5556ZM926.001 742.055L922.941 743.754C939.324 773.268 954.165 795.675 968.419 810.744C982.66 825.798 996.739 833.968 1011.57 833.988C1026.37 834.009 1040.88 825.91 1055.99 810.905C1071.13 795.873 1087.31 773.471 1105.48 743.887L1102.5 742.055L1099.52 740.224C1081.43 769.669 1065.6 791.502 1051.06 805.938C1036.5 820.402 1023.67 827.005 1011.58 826.988C999.522 826.972 987.157 820.366 973.504 805.933C959.864 791.514 945.363 769.724 929.061 740.357L926.001 742.055ZM1102.5 742.055L1105.49 743.88L1378.49 296.88L1375.5 295.055L1372.51 293.231L1099.51 740.231L1102.5 742.055ZM1375.5 295.055L1378.51 296.847C1410.37 243.395 1431.99 199.707 1443.44 163.85C1454.89 128.023 1456.32 99.5469 1447.15 76.846C1437.93 54.0496 1418.33 37.8368 1389.46 25.8703C1360.63 13.9223 1322.14 6.03196 1274.43 0.0823717L1274 3.55547L1273.57 7.02856C1321.11 12.9578 1358.84 20.7586 1386.78 32.337C1414.67 43.8969 1432.4 59.0457 1440.66 79.469C1448.95 99.9877 1448 126.589 1436.78 161.72C1425.56 196.822 1404.26 239.973 1372.49 293.264L1375.5 295.055ZM1274 3.55547L1273.13 0.165821C1229.11 11.4882 1195.14 24.7548 1171.23 41.1403C1147.23 57.5892 1133.2 77.3133 1129.55 101.401C1125.93 125.323 1132.66 152.944 1148.81 185.083C1164.97 217.255 1190.76 254.315 1225.79 297.268L1228.5 295.055L1231.21 292.843C1196.32 250.056 1170.89 213.45 1155.06 181.941C1139.22 150.399 1133.16 124.324 1136.47 102.448C1139.76 80.7368 1152.36 62.5592 1175.19 46.9146C1198.11 31.2067 1231.17 18.1882 1274.87 6.94511L1274 3.55547ZM1228.5 295.055L1226.03 297.53C1282.41 353.908 1314.66 381.994 1374.09 408.257L1375.5 405.055L1376.92 401.854C1318.69 376.121 1287.17 348.774 1230.98 292.581L1228.5 295.055ZM2186.5 466.555L2188.42 469.486C2254.58 426.257 2288.14 377.662 2297.58 329.621C2307.03 281.585 2292.23 234.76 2263 195.346C2204.7 116.729 2088.16 66.5006 1987.59 93.6766L1988.5 97.0555L1989.41 100.434C2086.84 74.1103 2200.55 122.882 2257.38 199.515C2285.71 237.726 2299.69 282.588 2290.72 328.271C2281.74 373.949 2249.67 421.104 2184.59 463.625L2186.5 466.555ZM1375.5 405.055L1373.97 408.203C1527.01 482.61 1603.22 470.203 1717.2 496.963L1718 493.555L1718.8 490.148C1602.78 462.908 1529.24 475.908 1377.03 401.908L1375.5 405.055ZM1718 493.555L1717.54 497.025C1818.17 510.293 1889.51 513.979 1958.81 509.099C2028.08 504.221 2095.18 490.791 2187.27 469.969L2186.5 466.555L2185.73 463.142C2093.66 483.958 2027.01 497.279 1958.32 502.116C1889.66 506.951 1818.83 503.318 1718.46 490.085L1718 493.555ZM1788 683.555L1785.39 685.882C1872.81 784.128 1955.33 843.002 2075.38 851.999C2195.06 860.968 2351.54 820.321 2586.86 721.281L2585.5 718.055L2584.14 714.83C2348.91 813.833 2193.78 853.853 2075.91 845.019C1958.42 836.213 1877.46 778.815 1790.62 681.229L1788 683.555ZM1988.5 97.0555L1987.34 93.7553C1893.85 126.783 1825.16 157.069 1780.14 207.392C1734.95 257.892 1714.03 328.018 1714.5 439.57L1718 439.555L1721.5 439.541C1721.04 328.791 1741.82 260.712 1785.36 212.059C1829.05 163.23 1896.08 133.417 1989.67 100.356L1988.5 97.0555ZM715.501 148.556L718.84 147.507L680.84 26.5069L677.501 27.5556L674.162 28.6042L712.162 149.604L715.501 148.556ZM444.501 742.055L447.685 743.509C500.601 627.621 541.893 537.19 583.185 446.759C624.477 356.328 665.769 265.897 718.685 150.009L715.501 148.556L712.317 147.102C659.401 262.99 618.109 353.421 576.817 443.852C535.525 534.283 494.233 624.714 441.317 740.602L444.501 742.055Z" fill="white"/>
</svg>
